<?xml version="1.0" encoding="UTF-8" standalone="no"?>
<!DOCTYPE svg PUBLIC "-//W3C//DTD SVG 1.1//EN" "http://www.w3.org/Graphics/SVG/1.1/DTD/svg11.dtd">
<svg xmlns:xl="http://www.w3.org/1999/xlink" xmlns="http://www.w3.org/2000/svg" version="1.1" xmlns:dc="http://purl.org/dc/elements/1.1/" viewBox="398.25 853.8941 758 183.58593" width="758" height="183.58593">
  <defs/>
  <g id="Canvas_1" fill="none" fill-opacity="1" stroke-dasharray="none" stroke-opacity="1" stroke="none">
    <title>Canvas 1</title>
    <g id="Canvas_1_Layer_1">
      <title>Layer 1</title>
      <g id="Group_2910">
        <g id="Graphic_2909">
          <ellipse cx="492.5" cy="870.6441" rx="16.7500267648568" ry="16.2500259659057" fill="#ffbd1a"/>
          <ellipse cx="492.5" cy="870.6441" rx="16.7500267648568" ry="16.2500259659057" stroke="black" stroke-linecap="round" stroke-linejoin="bevel" stroke-width="1"/>
        </g>
        <g id="Graphic_2908">
          <ellipse cx="415.5" cy="870.6441" rx="16.7500267648568" ry="16.2500259659057" fill="#ffbd1a"/>
          <ellipse cx="415.5" cy="870.6441" rx="16.7500267648568" ry="16.2500259659057" stroke="black" stroke-linecap="round" stroke-linejoin="bevel" stroke-width="1"/>
        </g>
        <g id="Graphic_2907">
          <ellipse cx="454" cy="870.6441" rx="16.7500267648568" ry="16.2500259659057" fill="#ffbd1a"/>
          <ellipse cx="454" cy="870.6441" rx="16.7500267648568" ry="16.2500259659057" stroke="black" stroke-linecap="round" stroke-linejoin="bevel" stroke-width="1"/>
        </g>
        <g id="Graphic_2906">
          <ellipse cx="531" cy="870.6441" rx="16.7500267648568" ry="16.2500259659057" fill="#ffbd1a"/>
          <ellipse cx="531" cy="870.6441" rx="16.7500267648568" ry="16.2500259659057" stroke="black" stroke-linecap="round" stroke-linejoin="bevel" stroke-width="1"/>
        </g>
        <g id="Graphic_2905">
          <ellipse cx="569" cy="870.6441" rx="16.7500267648568" ry="16.2500259659057" fill="#ffbd1a"/>
          <ellipse cx="569" cy="870.6441" rx="16.7500267648568" ry="16.2500259659057" stroke="black" stroke-linecap="round" stroke-linejoin="bevel" stroke-width="1"/>
        </g>
        <g id="Graphic_2904">
          <ellipse cx="607" cy="870.6441" rx="16.7500267648568" ry="16.2500259659057" fill="#ffbd1a"/>
          <ellipse cx="607" cy="870.6441" rx="16.7500267648568" ry="16.2500259659057" stroke="black" stroke-linecap="round" stroke-linejoin="bevel" stroke-width="1"/>
        </g>
        <g id="Graphic_2903">
          <ellipse cx="645" cy="870.6441" rx="16.7500267648568" ry="16.2500259659057" fill="#ffbd1a"/>
          <ellipse cx="645" cy="870.6441" rx="16.7500267648568" ry="16.2500259659057" stroke="black" stroke-linecap="round" stroke-linejoin="bevel" stroke-width="1"/>
        </g>
        <g id="Graphic_2902">
          <ellipse cx="683" cy="870.6441" rx="16.7500267648568" ry="16.2500259659057" fill="#ffbd1a"/>
          <ellipse cx="683" cy="870.6441" rx="16.7500267648568" ry="16.2500259659057" stroke="black" stroke-linecap="round" stroke-linejoin="bevel" stroke-width="1"/>
        </g>
        <g id="Graphic_2901">
          <ellipse cx="721" cy="870.6441" rx="16.7500267648568" ry="16.2500259659057" fill="#ffbd1a"/>
          <ellipse cx="721" cy="870.6441" rx="16.7500267648568" ry="16.2500259659057" stroke="black" stroke-linecap="round" stroke-linejoin="bevel" stroke-width="1"/>
        </g>
        <g id="Graphic_2900">
          <ellipse cx="759" cy="870.6441" rx="16.7500267648568" ry="16.2500259659057" fill="#ffbd1a"/>
          <ellipse cx="759" cy="870.6441" rx="16.7500267648568" ry="16.2500259659057" stroke="black" stroke-linecap="round" stroke-linejoin="bevel" stroke-width="1"/>
        </g>
        <g id="Graphic_2899">
          <ellipse cx="797" cy="870.6441" rx="16.7500267648568" ry="16.2500259659057" fill="#ffbd19"/>
          <ellipse cx="797" cy="870.6441" rx="16.7500267648568" ry="16.2500259659057" stroke="black" stroke-linecap="round" stroke-linejoin="bevel" stroke-width="1"/>
        </g>
        <g id="Graphic_2898">
          <ellipse cx="835" cy="870.6441" rx="16.7500267648568" ry="16.2500259659057" fill="#ffbd19"/>
          <ellipse cx="835" cy="870.6441" rx="16.7500267648568" ry="16.2500259659057" stroke="black" stroke-linecap="round" stroke-linejoin="bevel" stroke-width="1"/>
        </g>
        <g id="Graphic_2897">
          <ellipse cx="873" cy="870.6441" rx="16.7500267648568" ry="16.2500259659057" fill="#ffe4b1"/>
          <ellipse cx="873" cy="870.6441" rx="16.7500267648568" ry="16.2500259659057" stroke="black" stroke-linecap="round" stroke-linejoin="bevel" stroke-width="1"/>
        </g>
        <g id="Graphic_2896">
          <ellipse cx="911" cy="870.6441" rx="16.7500267648568" ry="16.2500259659057" fill="#ffe4b1"/>
          <ellipse cx="911" cy="870.6441" rx="16.7500267648568" ry="16.2500259659057" stroke="black" stroke-linecap="round" stroke-linejoin="bevel" stroke-width="1"/>
        </g>
        <g id="Graphic_2895">
          <ellipse cx="949" cy="870.6441" rx="16.7500267648568" ry="16.2500259659057" fill="#ffe4b1"/>
          <ellipse cx="949" cy="870.6441" rx="16.7500267648568" ry="16.2500259659057" stroke="black" stroke-linecap="round" stroke-linejoin="bevel" stroke-width="1"/>
        </g>
        <g id="Graphic_2894">
          <ellipse cx="987" cy="870.6441" rx="16.7500267648568" ry="16.2500259659057" fill="#ffe4b1"/>
          <ellipse cx="987" cy="870.6441" rx="16.7500267648568" ry="16.2500259659057" stroke="black" stroke-linecap="round" stroke-linejoin="bevel" stroke-width="1"/>
        </g>
        <g id="Graphic_2893">
          <ellipse cx="1025" cy="870.6441" rx="16.7500267648568" ry="16.2500259659057" fill="#bfbfff"/>
          <ellipse cx="1025" cy="870.6441" rx="16.7500267648568" ry="16.2500259659057" stroke="black" stroke-linecap="round" stroke-linejoin="bevel" stroke-width="1"/>
        </g>
        <g id="Graphic_2892">
          <ellipse cx="1063" cy="870.6441" rx="16.7500267648568" ry="16.2500259659057" fill="#bfbfff"/>
          <ellipse cx="1063" cy="870.6441" rx="16.7500267648568" ry="16.2500259659057" stroke="black" stroke-linecap="round" stroke-linejoin="bevel" stroke-width="1"/>
        </g>
        <g id="Graphic_2891">
          <ellipse cx="1101" cy="870.6441" rx="16.7500267648568" ry="16.2500259659057" fill="#bfbfff"/>
          <ellipse cx="1101" cy="870.6441" rx="16.7500267648568" ry="16.2500259659057" stroke="black" stroke-linecap="round" stroke-linejoin="bevel" stroke-width="1"/>
        </g>
        <g id="Graphic_2890">
          <ellipse cx="1139" cy="870.6441" rx="16.7500267648568" ry="16.2500259659057" fill="#bfbfff"/>
          <ellipse cx="1139" cy="870.6441" rx="16.7500267648568" ry="16.2500259659057" stroke="black" stroke-linecap="round" stroke-linejoin="bevel" stroke-width="1"/>
        </g>
        <g id="Graphic_2889">
          <ellipse cx="492.5" cy="908.5441" rx="16.7500267648568" ry="16.2500259659058" fill="#ffbd1a"/>
          <ellipse cx="492.5" cy="908.5441" rx="16.7500267648568" ry="16.2500259659058" stroke="black" stroke-linecap="round" stroke-linejoin="bevel" stroke-width="1"/>
        </g>
        <g id="Graphic_2888">
          <ellipse cx="415.5" cy="908.5441" rx="16.7500267648568" ry="16.2500259659058" fill="#ffbd1a"/>
          <ellipse cx="415.5" cy="908.5441" rx="16.7500267648568" ry="16.2500259659058" stroke="black" stroke-linecap="round" stroke-linejoin="bevel" stroke-width="1"/>
        </g>
        <g id="Graphic_2887">
          <ellipse cx="454" cy="908.5441" rx="16.7500267648568" ry="16.2500259659058" fill="#ffbd1a"/>
          <ellipse cx="454" cy="908.5441" rx="16.7500267648568" ry="16.2500259659058" stroke="black" stroke-linecap="round" stroke-linejoin="bevel" stroke-width="1"/>
        </g>
        <g id="Graphic_2886">
          <ellipse cx="531" cy="908.5441" rx="16.7500267648568" ry="16.2500259659058" fill="#ffbd1a"/>
          <ellipse cx="531" cy="908.5441" rx="16.7500267648568" ry="16.2500259659058" stroke="black" stroke-linecap="round" stroke-linejoin="bevel" stroke-width="1"/>
        </g>
        <g id="Graphic_2885">
          <ellipse cx="569" cy="908.5441" rx="16.7500267648568" ry="16.2500259659058" fill="#ffbd1a"/>
          <ellipse cx="569" cy="908.5441" rx="16.7500267648568" ry="16.2500259659058" stroke="black" stroke-linecap="round" stroke-linejoin="bevel" stroke-width="1"/>
        </g>
        <g id="Graphic_2884">
          <ellipse cx="607" cy="908.5441" rx="16.7500267648568" ry="16.2500259659058" fill="#ffbd1a"/>
          <ellipse cx="607" cy="908.5441" rx="16.7500267648568" ry="16.2500259659058" stroke="black" stroke-linecap="round" stroke-linejoin="bevel" stroke-width="1"/>
        </g>
        <g id="Graphic_2883">
          <ellipse cx="645" cy="908.5441" rx="16.7500267648568" ry="16.2500259659058" fill="#ffbd1a"/>
          <ellipse cx="645" cy="908.5441" rx="16.7500267648568" ry="16.2500259659058" stroke="black" stroke-linecap="round" stroke-linejoin="bevel" stroke-width="1"/>
        </g>
        <g id="Graphic_2882">
          <ellipse cx="683" cy="908.5441" rx="16.7500267648568" ry="16.2500259659058" fill="#ffbd1a"/>
          <ellipse cx="683" cy="908.5441" rx="16.7500267648568" ry="16.2500259659058" stroke="black" stroke-linecap="round" stroke-linejoin="bevel" stroke-width="1"/>
        </g>
        <g id="Graphic_2881">
          <ellipse cx="721" cy="908.5441" rx="16.7500267648568" ry="16.2500259659058" fill="#ffbd1a"/>
          <ellipse cx="721" cy="908.5441" rx="16.7500267648568" ry="16.2500259659058" stroke="black" stroke-linecap="round" stroke-linejoin="bevel" stroke-width="1"/>
        </g>
        <g id="Graphic_2880">
          <ellipse cx="759" cy="908.5441" rx="16.7500267648568" ry="16.2500259659058" fill="#ffbd1a"/>
          <ellipse cx="759" cy="908.5441" rx="16.7500267648568" ry="16.2500259659058" stroke="black" stroke-linecap="round" stroke-linejoin="bevel" stroke-width="1"/>
        </g>
        <g id="Graphic_2879">
          <ellipse cx="797" cy="908.5441" rx="16.7500267648568" ry="16.2500259659058" fill="#ffbd19"/>
          <ellipse cx="797" cy="908.5441" rx="16.7500267648568" ry="16.2500259659058" stroke="black" stroke-linecap="round" stroke-linejoin="bevel" stroke-width="1"/>
        </g>
        <g id="Graphic_2878">
          <ellipse cx="835" cy="908.5441" rx="16.7500267648568" ry="16.2500259659058" fill="#ffbd19"/>
          <ellipse cx="835" cy="908.5441" rx="16.7500267648568" ry="16.2500259659058" stroke="black" stroke-linecap="round" stroke-linejoin="bevel" stroke-width="1"/>
        </g>
        <g id="Graphic_2877">
          <ellipse cx="873" cy="908.5441" rx="16.7500267648568" ry="16.2500259659058" fill="#ffe4b1"/>
          <ellipse cx="873" cy="908.5441" rx="16.7500267648568" ry="16.2500259659058" stroke="black" stroke-linecap="round" stroke-linejoin="bevel" stroke-width="1"/>
        </g>
        <g id="Graphic_2876">
          <ellipse cx="911" cy="908.5441" rx="16.7500267648568" ry="16.2500259659058" fill="#ffe4b1"/>
          <ellipse cx="911" cy="908.5441" rx="16.7500267648568" ry="16.2500259659058" stroke="black" stroke-linecap="round" stroke-linejoin="bevel" stroke-width="1"/>
        </g>
        <g id="Graphic_2875">
          <ellipse cx="949" cy="908.5441" rx="16.7500267648568" ry="16.2500259659058" fill="#ffe4b1"/>
          <ellipse cx="949" cy="908.5441" rx="16.7500267648568" ry="16.2500259659058" stroke="black" stroke-linecap="round" stroke-linejoin="bevel" stroke-width="1"/>
        </g>
        <g id="Graphic_2874">
          <ellipse cx="987" cy="908.5441" rx="16.7500267648568" ry="16.2500259659058" fill="#ffe4b1"/>
          <ellipse cx="987" cy="908.5441" rx="16.7500267648568" ry="16.2500259659058" stroke="black" stroke-linecap="round" stroke-linejoin="bevel" stroke-width="1"/>
        </g>
        <g id="Graphic_2873">
          <ellipse cx="1025" cy="908.5441" rx="16.7500267648568" ry="16.2500259659058" fill="#bfbfff"/>
          <ellipse cx="1025" cy="908.5441" rx="16.7500267648568" ry="16.2500259659058" stroke="black" stroke-linecap="round" stroke-linejoin="bevel" stroke-width="1"/>
        </g>
        <g id="Graphic_2872">
          <ellipse cx="1063" cy="908.5441" rx="16.7500267648568" ry="16.2500259659058" fill="#bfbfff"/>
          <ellipse cx="1063" cy="908.5441" rx="16.7500267648568" ry="16.2500259659058" stroke="black" stroke-linecap="round" stroke-linejoin="bevel" stroke-width="1"/>
        </g>
        <g id="Graphic_2871">
          <ellipse cx="1101" cy="908.5441" rx="16.7500267648568" ry="16.2500259659058" fill="#bfbfff"/>
          <ellipse cx="1101" cy="908.5441" rx="16.7500267648568" ry="16.2500259659058" stroke="black" stroke-linecap="round" stroke-linejoin="bevel" stroke-width="1"/>
        </g>
        <g id="Graphic_2870">
          <ellipse cx="1139" cy="908.5441" rx="16.7500267648568" ry="16.2500259659058" fill="#bfbfff"/>
          <ellipse cx="1139" cy="908.5441" rx="16.7500267648568" ry="16.2500259659058" stroke="black" stroke-linecap="round" stroke-linejoin="bevel" stroke-width="1"/>
        </g>
        <g id="Graphic_2869">
          <ellipse cx="492.5" cy="946.0191" rx="16.7500267648568" ry="16.2500259659058" fill="#ffbd1a"/>
          <ellipse cx="492.5" cy="946.0191" rx="16.7500267648568" ry="16.2500259659058" stroke="black" stroke-linecap="round" stroke-linejoin="bevel" stroke-width="1"/>
        </g>
        <g id="Graphic_2868">
          <ellipse cx="415.5" cy="946.0191" rx="16.7500267648568" ry="16.2500259659058" fill="#ffbd1a"/>
          <ellipse cx="415.5" cy="946.0191" rx="16.7500267648568" ry="16.2500259659058" stroke="black" stroke-linecap="round" stroke-linejoin="bevel" stroke-width="1"/>
        </g>
        <g id="Graphic_2867">
          <ellipse cx="454" cy="946.0191" rx="16.7500267648568" ry="16.2500259659058" fill="#ffbd1a"/>
          <ellipse cx="454" cy="946.0191" rx="16.7500267648568" ry="16.2500259659058" stroke="black" stroke-linecap="round" stroke-linejoin="bevel" stroke-width="1"/>
        </g>
        <g id="Graphic_2866">
          <ellipse cx="531" cy="946.0191" rx="16.7500267648568" ry="16.2500259659058" fill="#ffbd1a"/>
          <ellipse cx="531" cy="946.0191" rx="16.7500267648568" ry="16.2500259659058" stroke="black" stroke-linecap="round" stroke-linejoin="bevel" stroke-width="1"/>
        </g>
        <g id="Graphic_2865">
          <ellipse cx="569" cy="946.0191" rx="16.7500267648568" ry="16.2500259659058" fill="#ffbd1a"/>
          <ellipse cx="569" cy="946.0191" rx="16.7500267648568" ry="16.2500259659058" stroke="black" stroke-linecap="round" stroke-linejoin="bevel" stroke-width="1"/>
        </g>
        <g id="Graphic_2864">
          <ellipse cx="607" cy="946.0191" rx="16.7500267648568" ry="16.2500259659058" fill="#ffbd1a"/>
          <ellipse cx="607" cy="946.0191" rx="16.7500267648568" ry="16.2500259659058" stroke="black" stroke-linecap="round" stroke-linejoin="bevel" stroke-width="1"/>
        </g>
        <g id="Graphic_2863">
          <ellipse cx="645" cy="946.0191" rx="16.7500267648568" ry="16.2500259659058" fill="#ffbd1a"/>
          <ellipse cx="645" cy="946.0191" rx="16.7500267648568" ry="16.2500259659058" stroke="black" stroke-linecap="round" stroke-linejoin="bevel" stroke-width="1"/>
        </g>
        <g id="Graphic_2862">
          <ellipse cx="683" cy="946.0191" rx="16.7500267648568" ry="16.2500259659058" fill="#ffbd1a"/>
          <ellipse cx="683" cy="946.0191" rx="16.7500267648568" ry="16.2500259659058" stroke="black" stroke-linecap="round" stroke-linejoin="bevel" stroke-width="1"/>
        </g>
        <g id="Graphic_2861">
          <ellipse cx="721" cy="946.0191" rx="16.7500267648568" ry="16.2500259659058" fill="#ffbd1a"/>
          <ellipse cx="721" cy="946.0191" rx="16.7500267648568" ry="16.2500259659058" stroke="black" stroke-linecap="round" stroke-linejoin="bevel" stroke-width="1"/>
        </g>
        <g id="Graphic_2860">
          <ellipse cx="759" cy="946.0191" rx="16.7500267648568" ry="16.2500259659058" fill="#ffbd1a"/>
          <ellipse cx="759" cy="946.0191" rx="16.7500267648568" ry="16.2500259659058" stroke="black" stroke-linecap="round" stroke-linejoin="bevel" stroke-width="1"/>
        </g>
        <g id="Graphic_2859">
          <ellipse cx="797" cy="946.0191" rx="16.7500267648568" ry="16.2500259659058" fill="#ffbd19"/>
          <ellipse cx="797" cy="946.0191" rx="16.7500267648568" ry="16.2500259659058" stroke="black" stroke-linecap="round" stroke-linejoin="bevel" stroke-width="1"/>
        </g>
        <g id="Graphic_2858">
          <ellipse cx="835" cy="946.0191" rx="16.7500267648568" ry="16.2500259659058" fill="#ffbd19"/>
          <ellipse cx="835" cy="946.0191" rx="16.7500267648568" ry="16.2500259659058" stroke="black" stroke-linecap="round" stroke-linejoin="bevel" stroke-width="1"/>
        </g>
        <g id="Graphic_2857">
          <ellipse cx="873" cy="946.0191" rx="16.7500267648568" ry="16.2500259659058" fill="#ffe4b1"/>
          <ellipse cx="873" cy="946.0191" rx="16.7500267648568" ry="16.2500259659058" stroke="black" stroke-linecap="round" stroke-linejoin="bevel" stroke-width="1"/>
        </g>
        <g id="Graphic_2856">
          <ellipse cx="911" cy="946.0191" rx="16.7500267648568" ry="16.2500259659058" fill="#ffe4b1"/>
          <ellipse cx="911" cy="946.0191" rx="16.7500267648568" ry="16.2500259659058" stroke="black" stroke-linecap="round" stroke-linejoin="bevel" stroke-width="1"/>
        </g>
        <g id="Graphic_2855">
          <ellipse cx="949" cy="946.0191" rx="16.7500267648568" ry="16.2500259659058" fill="#ffe4b1"/>
          <ellipse cx="949" cy="946.0191" rx="16.7500267648568" ry="16.2500259659058" stroke="black" stroke-linecap="round" stroke-linejoin="bevel" stroke-width="1"/>
        </g>
        <g id="Graphic_2854">
          <ellipse cx="987" cy="946.0191" rx="16.7500267648568" ry="16.2500259659058" fill="#ffe4b1"/>
          <ellipse cx="987" cy="946.0191" rx="16.7500267648568" ry="16.2500259659058" stroke="black" stroke-linecap="round" stroke-linejoin="bevel" stroke-width="1"/>
        </g>
        <g id="Graphic_2853">
          <ellipse cx="1025" cy="946.0191" rx="16.7500267648568" ry="16.2500259659058" fill="#bfbfff"/>
          <ellipse cx="1025" cy="946.0191" rx="16.7500267648568" ry="16.2500259659058" stroke="black" stroke-linecap="round" stroke-linejoin="bevel" stroke-width="1"/>
        </g>
        <g id="Graphic_2852">
          <ellipse cx="1063" cy="946.0191" rx="16.7500267648568" ry="16.2500259659058" fill="#bfbfff"/>
          <ellipse cx="1063" cy="946.0191" rx="16.7500267648568" ry="16.2500259659058" stroke="black" stroke-linecap="round" stroke-linejoin="bevel" stroke-width="1"/>
        </g>
        <g id="Graphic_2851">
          <ellipse cx="1101" cy="946.0191" rx="16.7500267648568" ry="16.2500259659058" fill="#bfbfff"/>
          <ellipse cx="1101" cy="946.0191" rx="16.7500267648568" ry="16.2500259659058" stroke="black" stroke-linecap="round" stroke-linejoin="bevel" stroke-width="1"/>
        </g>
        <g id="Graphic_2850">
          <ellipse cx="1139" cy="946.0191" rx="16.7500267648568" ry="16.2500259659058" fill="#bfbfff"/>
          <ellipse cx="1139" cy="946.0191" rx="16.7500267648568" ry="16.2500259659058" stroke="black" stroke-linecap="round" stroke-linejoin="bevel" stroke-width="1"/>
        </g>
        <g id="Graphic_2849">
          <ellipse cx="492.5" cy="983.3879" rx="16.7500267648568" ry="16.2500259659058" fill="#ffbd1a"/>
          <ellipse cx="492.5" cy="983.3879" rx="16.7500267648568" ry="16.2500259659058" stroke="black" stroke-linecap="round" stroke-linejoin="bevel" stroke-width="1"/>
        </g>
        <g id="Graphic_2848">
          <ellipse cx="415.5" cy="983.3879" rx="16.7500267648568" ry="16.2500259659058" fill="#ffbd1a"/>
          <ellipse cx="415.5" cy="983.3879" rx="16.7500267648568" ry="16.2500259659058" stroke="black" stroke-linecap="round" stroke-linejoin="bevel" stroke-width="1"/>
        </g>
        <g id="Graphic_2847">
          <ellipse cx="454" cy="983.3879" rx="16.7500267648568" ry="16.2500259659058" fill="#ffbd1a"/>
          <ellipse cx="454" cy="983.3879" rx="16.7500267648568" ry="16.2500259659058" stroke="black" stroke-linecap="round" stroke-linejoin="bevel" stroke-width="1"/>
        </g>
        <g id="Graphic_2846">
          <ellipse cx="531" cy="983.3879" rx="16.7500267648568" ry="16.2500259659058" fill="#ffbd1a"/>
          <ellipse cx="531" cy="983.3879" rx="16.7500267648568" ry="16.2500259659058" stroke="black" stroke-linecap="round" stroke-linejoin="bevel" stroke-width="1"/>
        </g>
        <g id="Graphic_2845">
          <ellipse cx="569" cy="983.3879" rx="16.7500267648568" ry="16.2500259659058" fill="#ffbd1a"/>
          <ellipse cx="569" cy="983.3879" rx="16.7500267648568" ry="16.2500259659058" stroke="black" stroke-linecap="round" stroke-linejoin="bevel" stroke-width="1"/>
        </g>
        <g id="Graphic_2844">
          <ellipse cx="607" cy="983.3879" rx="16.7500267648568" ry="16.2500259659058" fill="#ffbd1a"/>
          <ellipse cx="607" cy="983.3879" rx="16.7500267648568" ry="16.2500259659058" stroke="black" stroke-linecap="round" stroke-linejoin="bevel" stroke-width="1"/>
        </g>
        <g id="Graphic_2843">
          <ellipse cx="645" cy="983.3879" rx="16.7500267648568" ry="16.2500259659058" fill="#ffbd1a"/>
          <ellipse cx="645" cy="983.3879" rx="16.7500267648568" ry="16.2500259659058" stroke="black" stroke-linecap="round" stroke-linejoin="bevel" stroke-width="1"/>
        </g>
        <g id="Graphic_2842">
          <ellipse cx="683" cy="983.3879" rx="16.7500267648568" ry="16.2500259659058" fill="#ffbd1a"/>
          <ellipse cx="683" cy="983.3879" rx="16.7500267648568" ry="16.2500259659058" stroke="black" stroke-linecap="round" stroke-linejoin="bevel" stroke-width="1"/>
        </g>
        <g id="Graphic_2841">
          <ellipse cx="721" cy="983.3879" rx="16.7500267648568" ry="16.2500259659058" fill="#ffbd1a"/>
          <ellipse cx="721" cy="983.3879" rx="16.7500267648568" ry="16.2500259659058" stroke="black" stroke-linecap="round" stroke-linejoin="bevel" stroke-width="1"/>
        </g>
        <g id="Graphic_2840">
          <ellipse cx="759" cy="983.3879" rx="16.7500267648568" ry="16.2500259659058" fill="#ffbd1a"/>
          <ellipse cx="759" cy="983.3879" rx="16.7500267648568" ry="16.2500259659058" stroke="black" stroke-linecap="round" stroke-linejoin="bevel" stroke-width="1"/>
        </g>
        <g id="Graphic_2839">
          <ellipse cx="797" cy="983.3879" rx="16.7500267648568" ry="16.2500259659058" fill="#ffbd19"/>
          <ellipse cx="797" cy="983.3879" rx="16.7500267648568" ry="16.2500259659058" stroke="black" stroke-linecap="round" stroke-linejoin="bevel" stroke-width="1"/>
        </g>
        <g id="Graphic_2838">
          <ellipse cx="835" cy="983.3879" rx="16.7500267648568" ry="16.2500259659058" fill="#ffbd19"/>
          <ellipse cx="835" cy="983.3879" rx="16.7500267648568" ry="16.2500259659058" stroke="black" stroke-linecap="round" stroke-linejoin="bevel" stroke-width="1"/>
        </g>
        <g id="Graphic_2837">
          <ellipse cx="873" cy="983.3879" rx="16.7500267648568" ry="16.2500259659058" fill="#ffe4b1"/>
          <ellipse cx="873" cy="983.3879" rx="16.7500267648568" ry="16.2500259659058" stroke="black" stroke-linecap="round" stroke-linejoin="bevel" stroke-width="1"/>
        </g>
        <g id="Graphic_2836">
          <ellipse cx="911" cy="983.3879" rx="16.7500267648568" ry="16.2500259659058" fill="#ffe4b1"/>
          <ellipse cx="911" cy="983.3879" rx="16.7500267648568" ry="16.2500259659058" stroke="black" stroke-linecap="round" stroke-linejoin="bevel" stroke-width="1"/>
        </g>
        <g id="Graphic_2835">
          <ellipse cx="949" cy="983.3879" rx="16.7500267648568" ry="16.2500259659058" fill="#ffe4b1"/>
          <ellipse cx="949" cy="983.3879" rx="16.7500267648568" ry="16.2500259659058" stroke="black" stroke-linecap="round" stroke-linejoin="bevel" stroke-width="1"/>
        </g>
        <g id="Graphic_2834">
          <ellipse cx="987" cy="983.3879" rx="16.7500267648568" ry="16.2500259659058" fill="#ffe4b1"/>
          <ellipse cx="987" cy="983.3879" rx="16.7500267648568" ry="16.2500259659058" stroke="black" stroke-linecap="round" stroke-linejoin="bevel" stroke-width="1"/>
        </g>
        <g id="Graphic_2833">
          <ellipse cx="1025" cy="983.3879" rx="16.7500267648568" ry="16.2500259659058" fill="#bfbfff"/>
          <ellipse cx="1025" cy="983.3879" rx="16.7500267648568" ry="16.2500259659058" stroke="black" stroke-linecap="round" stroke-linejoin="bevel" stroke-width="1"/>
        </g>
        <g id="Graphic_2832">
          <ellipse cx="1063" cy="983.3879" rx="16.7500267648568" ry="16.2500259659058" fill="#bfbfff"/>
          <ellipse cx="1063" cy="983.3879" rx="16.7500267648568" ry="16.2500259659058" stroke="black" stroke-linecap="round" stroke-linejoin="bevel" stroke-width="1"/>
        </g>
        <g id="Graphic_2831">
          <ellipse cx="1101" cy="983.3879" rx="16.7500267648568" ry="16.2500259659058" fill="#bfbfff"/>
          <ellipse cx="1101" cy="983.3879" rx="16.7500267648568" ry="16.2500259659058" stroke="black" stroke-linecap="round" stroke-linejoin="bevel" stroke-width="1"/>
        </g>
        <g id="Graphic_2830">
          <ellipse cx="1139" cy="983.3879" rx="16.7500267648568" ry="16.2500259659058" fill="#bfbfff"/>
          <ellipse cx="1139" cy="983.3879" rx="16.7500267648568" ry="16.2500259659058" stroke="black" stroke-linecap="round" stroke-linejoin="bevel" stroke-width="1"/>
        </g>
        <g id="Graphic_2829">
          <ellipse cx="492.5" cy="1020.7301" rx="16.7500267648568" ry="16.2500259659059" fill="#ffbd1a"/>
          <ellipse cx="492.5" cy="1020.7301" rx="16.7500267648568" ry="16.2500259659059" stroke="black" stroke-linecap="round" stroke-linejoin="bevel" stroke-width="1"/>
        </g>
        <g id="Graphic_2828">
          <ellipse cx="415.5" cy="1020.7301" rx="16.7500267648568" ry="16.2500259659059" fill="#ffbd1a"/>
          <ellipse cx="415.5" cy="1020.7301" rx="16.7500267648568" ry="16.2500259659059" stroke="black" stroke-linecap="round" stroke-linejoin="bevel" stroke-width="1"/>
        </g>
        <g id="Graphic_2827">
          <ellipse cx="454" cy="1020.7301" rx="16.7500267648568" ry="16.2500259659059" fill="#ffbd1a"/>
          <ellipse cx="454" cy="1020.7301" rx="16.7500267648568" ry="16.2500259659059" stroke="black" stroke-linecap="round" stroke-linejoin="bevel" stroke-width="1"/>
        </g>
        <g id="Graphic_2826">
          <ellipse cx="531" cy="1020.7301" rx="16.7500267648568" ry="16.2500259659059" fill="#ffbd1a"/>
          <ellipse cx="531" cy="1020.7301" rx="16.7500267648568" ry="16.2500259659059" stroke="black" stroke-linecap="round" stroke-linejoin="bevel" stroke-width="1"/>
        </g>
        <g id="Graphic_2825">
          <ellipse cx="569" cy="1020.7301" rx="16.7500267648568" ry="16.2500259659059" fill="#ffbd1a"/>
          <ellipse cx="569" cy="1020.7301" rx="16.7500267648568" ry="16.2500259659059" stroke="black" stroke-linecap="round" stroke-linejoin="bevel" stroke-width="1"/>
        </g>
        <g id="Graphic_2824">
          <ellipse cx="607" cy="1020.7301" rx="16.7500267648568" ry="16.2500259659059" fill="#ffbd1a"/>
          <ellipse cx="607" cy="1020.7301" rx="16.7500267648568" ry="16.2500259659059" stroke="black" stroke-linecap="round" stroke-linejoin="bevel" stroke-width="1"/>
        </g>
        <g id="Graphic_2823">
          <ellipse cx="645" cy="1020.7301" rx="16.7500267648568" ry="16.2500259659059" fill="#ffbd1a"/>
          <ellipse cx="645" cy="1020.7301" rx="16.7500267648568" ry="16.2500259659059" stroke="black" stroke-linecap="round" stroke-linejoin="bevel" stroke-width="1"/>
        </g>
        <g id="Graphic_2822">
          <ellipse cx="683" cy="1020.7301" rx="16.7500267648568" ry="16.2500259659059" fill="#ffbd1a"/>
          <ellipse cx="683" cy="1020.7301" rx="16.7500267648568" ry="16.2500259659059" stroke="black" stroke-linecap="round" stroke-linejoin="bevel" stroke-width="1"/>
        </g>
        <g id="Graphic_2821">
          <ellipse cx="721" cy="1020.7301" rx="16.7500267648568" ry="16.2500259659059" fill="#ffbd1a"/>
          <ellipse cx="721" cy="1020.7301" rx="16.7500267648568" ry="16.2500259659059" stroke="black" stroke-linecap="round" stroke-linejoin="bevel" stroke-width="1"/>
        </g>
        <g id="Graphic_2820">
          <ellipse cx="759" cy="1020.7301" rx="16.7500267648568" ry="16.2500259659059" fill="#ffbd1a"/>
          <ellipse cx="759" cy="1020.7301" rx="16.7500267648568" ry="16.2500259659059" stroke="black" stroke-linecap="round" stroke-linejoin="bevel" stroke-width="1"/>
        </g>
        <g id="Graphic_2819">
          <ellipse cx="797" cy="1020.7301" rx="16.7500267648568" ry="16.2500259659059" fill="#ffbd19"/>
          <ellipse cx="797" cy="1020.7301" rx="16.7500267648568" ry="16.2500259659059" stroke="black" stroke-linecap="round" stroke-linejoin="bevel" stroke-width="1"/>
        </g>
        <g id="Graphic_2818">
          <ellipse cx="835" cy="1020.7301" rx="16.7500267648568" ry="16.2500259659059" fill="#ffbd19"/>
          <ellipse cx="835" cy="1020.7301" rx="16.7500267648568" ry="16.2500259659059" stroke="black" stroke-linecap="round" stroke-linejoin="bevel" stroke-width="1"/>
        </g>
        <g id="Graphic_2817">
          <ellipse cx="873" cy="1020.7301" rx="16.7500267648568" ry="16.2500259659059" fill="#ffe4b1"/>
          <ellipse cx="873" cy="1020.7301" rx="16.7500267648568" ry="16.2500259659059" stroke="black" stroke-linecap="round" stroke-linejoin="bevel" stroke-width="1"/>
        </g>
        <g id="Graphic_2816">
          <ellipse cx="911" cy="1020.7301" rx="16.7500267648568" ry="16.2500259659059" fill="#ffe4b1"/>
          <ellipse cx="911" cy="1020.7301" rx="16.7500267648568" ry="16.2500259659059" stroke="black" stroke-linecap="round" stroke-linejoin="bevel" stroke-width="1"/>
        </g>
        <g id="Graphic_2815">
          <ellipse cx="949" cy="1020.7301" rx="16.7500267648568" ry="16.2500259659059" fill="#ffe4b1"/>
          <ellipse cx="949" cy="1020.7301" rx="16.7500267648568" ry="16.2500259659059" stroke="black" stroke-linecap="round" stroke-linejoin="bevel" stroke-width="1"/>
        </g>
        <g id="Graphic_2814">
          <ellipse cx="987" cy="1020.7301" rx="16.7500267648568" ry="16.2500259659059" fill="#ffe4b1"/>
          <ellipse cx="987" cy="1020.7301" rx="16.7500267648568" ry="16.2500259659059" stroke="black" stroke-linecap="round" stroke-linejoin="bevel" stroke-width="1"/>
        </g>
        <g id="Graphic_2813">
          <ellipse cx="1025" cy="1020.7301" rx="16.7500267648568" ry="16.2500259659059" fill="#bfbfff"/>
          <ellipse cx="1025" cy="1020.7301" rx="16.7500267648568" ry="16.2500259659059" stroke="black" stroke-linecap="round" stroke-linejoin="bevel" stroke-width="1"/>
        </g>
        <g id="Graphic_2812">
          <ellipse cx="1063" cy="1020.7301" rx="16.7500267648568" ry="16.2500259659059" fill="#bfbfff"/>
          <ellipse cx="1063" cy="1020.7301" rx="16.7500267648568" ry="16.2500259659059" stroke="black" stroke-linecap="round" stroke-linejoin="bevel" stroke-width="1"/>
        </g>
        <g id="Graphic_2811">
          <ellipse cx="1101" cy="1020.7301" rx="16.7500267648568" ry="16.2500259659059" fill="#bfbfff"/>
          <ellipse cx="1101" cy="1020.7301" rx="16.7500267648568" ry="16.2500259659059" stroke="black" stroke-linecap="round" stroke-linejoin="bevel" stroke-width="1"/>
        </g>
        <g id="Graphic_2810">
          <ellipse cx="1139" cy="1020.7301" rx="16.7500267648568" ry="16.2500259659059" fill="#bfbfff"/>
          <ellipse cx="1139" cy="1020.7301" rx="16.7500267648568" ry="16.2500259659059" stroke="black" stroke-linecap="round" stroke-linejoin="bevel" stroke-width="1"/>
        </g>
      </g>
    </g>
  </g>
</svg>
