<?xml version="1.0" encoding="UTF-8" standalone="no"?>
<!DOCTYPE svg PUBLIC "-//W3C//DTD SVG 1.1//EN" "http://www.w3.org/Graphics/SVG/1.1/DTD/svg11.dtd">
<svg xmlns="http://www.w3.org/2000/svg" xmlns:xl="http://www.w3.org/1999/xlink" version="1.1" xmlns:dc="http://purl.org/dc/elements/1.1/" viewBox="2420.5 889.96 760 183.58593" width="760" height="183.58593">
  <defs/>
  <g id="Canvas_1" fill="none" stroke-dasharray="none" stroke="none" stroke-opacity="1" fill-opacity="1">
    <title>Canvas 1</title>
    <g id="Canvas_1_Layer_1">
      <title>Layer 1</title>
      <g id="Graphic_3847">
        <ellipse cx="2553.25" cy="906.71" rx="16.7500267648564" ry="16.2500259659057" fill="#ffbb1a"/>
        <ellipse cx="2553.25" cy="906.71" rx="16.7500267648564" ry="16.2500259659057" stroke="black" stroke-linecap="round" stroke-linejoin="bevel" stroke-width="1"/>
      </g>
      <g id="Graphic_3846">
        <ellipse cx="2668.75" cy="906.71" rx="16.7500267648564" ry="16.2500259659057" fill="#ffbb1a"/>
        <ellipse cx="2668.75" cy="906.71" rx="16.7500267648564" ry="16.2500259659057" stroke="black" stroke-linecap="round" stroke-linejoin="bevel" stroke-width="1"/>
      </g>
      <g id="Graphic_3845">
        <ellipse cx="2514.75" cy="906.71" rx="16.7500267648565" ry="16.2500259659057" fill="#ffbb1a"/>
        <ellipse cx="2514.75" cy="906.71" rx="16.7500267648565" ry="16.2500259659057" stroke="black" stroke-linecap="round" stroke-linejoin="bevel" stroke-width="1"/>
      </g>
      <g id="Graphic_3844">
        <ellipse cx="2591.75" cy="906.71" rx="16.7500267648565" ry="16.2500259659057" fill="#ffbb1a"/>
        <ellipse cx="2591.75" cy="906.71" rx="16.7500267648565" ry="16.2500259659057" stroke="black" stroke-linecap="round" stroke-linejoin="bevel" stroke-width="1"/>
      </g>
      <g id="Graphic_3843">
        <ellipse cx="2437.75" cy="906.71" rx="16.7500267648563" ry="16.2500259659057" fill="#ffbb1a"/>
        <ellipse cx="2437.75" cy="906.71" rx="16.7500267648563" ry="16.2500259659057" stroke="black" stroke-linecap="round" stroke-linejoin="bevel" stroke-width="1"/>
      </g>
      <g id="Graphic_3842">
        <ellipse cx="2630.25" cy="906.71" rx="16.7500267648563" ry="16.2500259659057" fill="#ffbb1a"/>
        <ellipse cx="2630.25" cy="906.71" rx="16.7500267648563" ry="16.2500259659057" stroke="black" stroke-linecap="round" stroke-linejoin="bevel" stroke-width="1"/>
      </g>
      <g id="Graphic_3841">
        <ellipse cx="2476.25" cy="906.71" rx="16.7500267648565" ry="16.2500259659057" fill="#ffbb1a"/>
        <ellipse cx="2476.25" cy="906.71" rx="16.7500267648565" ry="16.2500259659057" stroke="black" stroke-linecap="round" stroke-linejoin="bevel" stroke-width="1"/>
      </g>
      <g id="Graphic_3840">
        <ellipse cx="2707.25" cy="906.71" rx="16.7500267648565" ry="16.2500259659057" fill="#ffbb1a"/>
        <ellipse cx="2707.25" cy="906.71" rx="16.7500267648565" ry="16.2500259659057" stroke="black" stroke-linecap="round" stroke-linejoin="bevel" stroke-width="1"/>
      </g>
      <g id="Graphic_3839">
        <ellipse cx="2745.25" cy="906.71" rx="16.7500267648564" ry="16.2500259659057" fill="#ffbb1a"/>
        <ellipse cx="2745.25" cy="906.71" rx="16.7500267648564" ry="16.2500259659057" stroke="black" stroke-linecap="round" stroke-linejoin="bevel" stroke-width="1"/>
      </g>
      <g id="Graphic_3838">
        <ellipse cx="2783.25" cy="906.71" rx="16.7500267648563" ry="16.2500259659057" fill="#ffe4b0"/>
        <ellipse cx="2783.25" cy="906.71" rx="16.7500267648563" ry="16.2500259659057" stroke="black" stroke-linecap="round" stroke-linejoin="bevel" stroke-width="1"/>
      </g>
      <g id="Graphic_3837">
        <ellipse cx="2821.25" cy="906.71" rx="16.7500267648564" ry="16.2500259659057" fill="#ffe4b0"/>
        <ellipse cx="2821.25" cy="906.71" rx="16.7500267648564" ry="16.2500259659057" stroke="black" stroke-linecap="round" stroke-linejoin="bevel" stroke-width="1"/>
      </g>
      <g id="Graphic_3836">
        <ellipse cx="2859.25" cy="906.71" rx="16.7500267648564" ry="16.2500259659057" fill="#ffe4b0"/>
        <ellipse cx="2859.25" cy="906.71" rx="16.7500267648564" ry="16.2500259659057" stroke="black" stroke-linecap="round" stroke-linejoin="bevel" stroke-width="1"/>
      </g>
      <g id="Graphic_3835">
        <ellipse cx="2897.25" cy="906.71" rx="16.7500267648565" ry="16.2500259659057" fill="#e2e3ff"/>
        <ellipse cx="2897.25" cy="906.71" rx="16.7500267648565" ry="16.2500259659057" stroke="black" stroke-linecap="round" stroke-linejoin="bevel" stroke-width="1"/>
      </g>
      <g id="Graphic_3834">
        <ellipse cx="2935.25" cy="906.71" rx="16.7500267648565" ry="16.2500259659057" fill="#e2e3ff"/>
        <ellipse cx="2935.25" cy="906.71" rx="16.7500267648565" ry="16.2500259659057" stroke="black" stroke-linecap="round" stroke-linejoin="bevel" stroke-width="1"/>
      </g>
      <g id="Graphic_3833">
        <ellipse cx="2973.25" cy="906.71" rx="16.7500267648565" ry="16.2500259659057" fill="#e2e3ff"/>
        <ellipse cx="2973.25" cy="906.71" rx="16.7500267648565" ry="16.2500259659057" stroke="black" stroke-linecap="round" stroke-linejoin="bevel" stroke-width="1"/>
      </g>
      <g id="Graphic_3832">
        <ellipse cx="3011.25" cy="906.71" rx="16.7500267648563" ry="16.2500259659057" fill="#bfbfff"/>
        <ellipse cx="3011.25" cy="906.71" rx="16.7500267648563" ry="16.2500259659057" stroke="black" stroke-linecap="round" stroke-linejoin="bevel" stroke-width="1"/>
      </g>
      <g id="Graphic_3831">
        <ellipse cx="3049.25" cy="906.71" rx="16.7500267648564" ry="16.2500259659057" fill="#bfbfff"/>
        <ellipse cx="3049.25" cy="906.71" rx="16.7500267648564" ry="16.2500259659057" stroke="black" stroke-linecap="round" stroke-linejoin="bevel" stroke-width="1"/>
      </g>
      <g id="Graphic_3830">
        <ellipse cx="3087.25" cy="906.71" rx="16.7500267648565" ry="16.2500259659057" fill="#bfbfff"/>
        <ellipse cx="3087.25" cy="906.71" rx="16.7500267648565" ry="16.2500259659057" stroke="black" stroke-linecap="round" stroke-linejoin="bevel" stroke-width="1"/>
      </g>
      <g id="Graphic_3829">
        <ellipse cx="3125.25" cy="906.71" rx="16.7500267648564" ry="16.2500259659057" fill="#bfbfff"/>
        <ellipse cx="3125.25" cy="906.71" rx="16.7500267648564" ry="16.2500259659057" stroke="black" stroke-linecap="round" stroke-linejoin="bevel" stroke-width="1"/>
      </g>
      <g id="Graphic_3828">
        <ellipse cx="3163.25" cy="906.71" rx="16.7500267648565" ry="16.2500259659057" fill="#bfbfff"/>
        <ellipse cx="3163.25" cy="906.71" rx="16.7500267648565" ry="16.2500259659057" stroke="black" stroke-linecap="round" stroke-linejoin="bevel" stroke-width="1"/>
      </g>
      <g id="Graphic_3827">
        <ellipse cx="2553.25" cy="944.61" rx="16.7500267648564" ry="16.2500259659057" fill="#ffbb1a"/>
        <ellipse cx="2553.25" cy="944.61" rx="16.7500267648564" ry="16.2500259659057" stroke="black" stroke-linecap="round" stroke-linejoin="bevel" stroke-width="1"/>
      </g>
      <g id="Graphic_3826">
        <ellipse cx="2668.75" cy="944.61" rx="16.7500267648564" ry="16.2500259659057" fill="#ffbb1a"/>
        <ellipse cx="2668.75" cy="944.61" rx="16.7500267648564" ry="16.2500259659057" stroke="black" stroke-linecap="round" stroke-linejoin="bevel" stroke-width="1"/>
      </g>
      <g id="Graphic_3825">
        <ellipse cx="2514.75" cy="944.61" rx="16.7500267648565" ry="16.2500259659057" fill="#ffbb1a"/>
        <ellipse cx="2514.75" cy="944.61" rx="16.7500267648565" ry="16.2500259659057" stroke="black" stroke-linecap="round" stroke-linejoin="bevel" stroke-width="1"/>
      </g>
      <g id="Graphic_3824">
        <ellipse cx="2591.75" cy="944.61" rx="16.7500267648565" ry="16.2500259659057" fill="#ffbb1a"/>
        <ellipse cx="2591.75" cy="944.61" rx="16.7500267648565" ry="16.2500259659057" stroke="black" stroke-linecap="round" stroke-linejoin="bevel" stroke-width="1"/>
      </g>
      <g id="Graphic_3823">
        <ellipse cx="2437.75" cy="944.61" rx="16.7500267648563" ry="16.2500259659057" fill="#ffbb1a"/>
        <ellipse cx="2437.75" cy="944.61" rx="16.7500267648563" ry="16.2500259659057" stroke="black" stroke-linecap="round" stroke-linejoin="bevel" stroke-width="1"/>
      </g>
      <g id="Graphic_3822">
        <ellipse cx="2630.25" cy="944.61" rx="16.7500267648563" ry="16.2500259659057" fill="#ffbb1a"/>
        <ellipse cx="2630.25" cy="944.61" rx="16.7500267648563" ry="16.2500259659057" stroke="black" stroke-linecap="round" stroke-linejoin="bevel" stroke-width="1"/>
      </g>
      <g id="Graphic_3821">
        <ellipse cx="2476.25" cy="944.61" rx="16.7500267648565" ry="16.2500259659057" fill="#ffbb1a"/>
        <ellipse cx="2476.25" cy="944.61" rx="16.7500267648565" ry="16.2500259659057" stroke="black" stroke-linecap="round" stroke-linejoin="bevel" stroke-width="1"/>
      </g>
      <g id="Graphic_3820">
        <ellipse cx="2707.25" cy="944.61" rx="16.7500267648565" ry="16.2500259659057" fill="#ffbb1a"/>
        <ellipse cx="2707.25" cy="944.61" rx="16.7500267648565" ry="16.2500259659057" stroke="black" stroke-linecap="round" stroke-linejoin="bevel" stroke-width="1"/>
      </g>
      <g id="Graphic_3819">
        <ellipse cx="2745.25" cy="944.61" rx="16.7500267648564" ry="16.2500259659057" fill="#ffbb1a"/>
        <ellipse cx="2745.25" cy="944.61" rx="16.7500267648564" ry="16.2500259659057" stroke="black" stroke-linecap="round" stroke-linejoin="bevel" stroke-width="1"/>
      </g>
      <g id="Graphic_3818">
        <ellipse cx="2783.25" cy="944.61" rx="16.7500267648563" ry="16.2500259659057" fill="#ffe4b0"/>
        <ellipse cx="2783.25" cy="944.61" rx="16.7500267648563" ry="16.2500259659057" stroke="black" stroke-linecap="round" stroke-linejoin="bevel" stroke-width="1"/>
      </g>
      <g id="Graphic_3817">
        <ellipse cx="2821.25" cy="944.61" rx="16.7500267648564" ry="16.2500259659057" fill="#ffe4b0"/>
        <ellipse cx="2821.25" cy="944.61" rx="16.7500267648564" ry="16.2500259659057" stroke="black" stroke-linecap="round" stroke-linejoin="bevel" stroke-width="1"/>
      </g>
      <g id="Graphic_3816">
        <ellipse cx="2859.25" cy="944.61" rx="16.7500267648564" ry="16.2500259659057" fill="#ffe4b0"/>
        <ellipse cx="2859.25" cy="944.61" rx="16.7500267648564" ry="16.2500259659057" stroke="black" stroke-linecap="round" stroke-linejoin="bevel" stroke-width="1"/>
      </g>
      <g id="Graphic_3815">
        <ellipse cx="2897.25" cy="944.61" rx="16.7500267648565" ry="16.2500259659057" fill="#e2e3ff"/>
        <ellipse cx="2897.25" cy="944.61" rx="16.7500267648565" ry="16.2500259659057" stroke="black" stroke-linecap="round" stroke-linejoin="bevel" stroke-width="1"/>
      </g>
      <g id="Graphic_3814">
        <ellipse cx="2935.25" cy="944.61" rx="16.7500267648565" ry="16.2500259659057" fill="#e2e3ff"/>
        <ellipse cx="2935.25" cy="944.61" rx="16.7500267648565" ry="16.2500259659057" stroke="black" stroke-linecap="round" stroke-linejoin="bevel" stroke-width="1"/>
      </g>
      <g id="Graphic_3813">
        <ellipse cx="2973.25" cy="944.61" rx="16.7500267648565" ry="16.2500259659057" fill="#e2e3ff"/>
        <ellipse cx="2973.25" cy="944.61" rx="16.7500267648565" ry="16.2500259659057" stroke="black" stroke-linecap="round" stroke-linejoin="bevel" stroke-width="1"/>
      </g>
      <g id="Graphic_3812">
        <ellipse cx="3011.25" cy="944.61" rx="16.7500267648563" ry="16.2500259659057" fill="#bfbfff"/>
        <ellipse cx="3011.25" cy="944.61" rx="16.7500267648563" ry="16.2500259659057" stroke="black" stroke-linecap="round" stroke-linejoin="bevel" stroke-width="1"/>
      </g>
      <g id="Graphic_3811">
        <ellipse cx="3049.25" cy="944.61" rx="16.7500267648564" ry="16.2500259659057" fill="#bfbfff"/>
        <ellipse cx="3049.25" cy="944.61" rx="16.7500267648564" ry="16.2500259659057" stroke="black" stroke-linecap="round" stroke-linejoin="bevel" stroke-width="1"/>
      </g>
      <g id="Graphic_3810">
        <ellipse cx="3087.25" cy="944.61" rx="16.7500267648565" ry="16.2500259659057" fill="#bfbfff"/>
        <ellipse cx="3087.25" cy="944.61" rx="16.7500267648565" ry="16.2500259659057" stroke="black" stroke-linecap="round" stroke-linejoin="bevel" stroke-width="1"/>
      </g>
      <g id="Graphic_3809">
        <ellipse cx="3125.25" cy="944.61" rx="16.7500267648564" ry="16.2500259659057" fill="#bfbfff"/>
        <ellipse cx="3125.25" cy="944.61" rx="16.7500267648564" ry="16.2500259659057" stroke="black" stroke-linecap="round" stroke-linejoin="bevel" stroke-width="1"/>
      </g>
      <g id="Graphic_3808">
        <ellipse cx="3163.25" cy="944.61" rx="16.7500267648565" ry="16.2500259659057" fill="#bfbfff"/>
        <ellipse cx="3163.25" cy="944.61" rx="16.7500267648565" ry="16.2500259659057" stroke="black" stroke-linecap="round" stroke-linejoin="bevel" stroke-width="1"/>
      </g>
      <g id="Graphic_3807">
        <ellipse cx="2553.25" cy="982.085" rx="16.7500267648564" ry="16.2500259659058" fill="#ffbb1a"/>
        <ellipse cx="2553.25" cy="982.085" rx="16.7500267648564" ry="16.2500259659058" stroke="black" stroke-linecap="round" stroke-linejoin="bevel" stroke-width="1"/>
      </g>
      <g id="Graphic_3806">
        <ellipse cx="2668.75" cy="982.085" rx="16.7500267648564" ry="16.2500259659058" fill="#ffbb1a"/>
        <ellipse cx="2668.75" cy="982.085" rx="16.7500267648564" ry="16.2500259659058" stroke="black" stroke-linecap="round" stroke-linejoin="bevel" stroke-width="1"/>
      </g>
      <g id="Graphic_3805">
        <ellipse cx="2514.75" cy="982.085" rx="16.7500267648565" ry="16.2500259659058" fill="#ffbb1a"/>
        <ellipse cx="2514.75" cy="982.085" rx="16.7500267648565" ry="16.2500259659058" stroke="black" stroke-linecap="round" stroke-linejoin="bevel" stroke-width="1"/>
      </g>
      <g id="Graphic_3804">
        <ellipse cx="2591.75" cy="982.085" rx="16.7500267648565" ry="16.2500259659058" fill="#ffbb1a"/>
        <ellipse cx="2591.75" cy="982.085" rx="16.7500267648565" ry="16.2500259659058" stroke="black" stroke-linecap="round" stroke-linejoin="bevel" stroke-width="1"/>
      </g>
      <g id="Graphic_3803">
        <ellipse cx="2437.75" cy="982.085" rx="16.7500267648563" ry="16.2500259659058" fill="#ffbb1a"/>
        <ellipse cx="2437.75" cy="982.085" rx="16.7500267648563" ry="16.2500259659058" stroke="black" stroke-linecap="round" stroke-linejoin="bevel" stroke-width="1"/>
      </g>
      <g id="Graphic_3802">
        <ellipse cx="2630.25" cy="982.085" rx="16.7500267648563" ry="16.2500259659058" fill="#ffbb1a"/>
        <ellipse cx="2630.25" cy="982.085" rx="16.7500267648563" ry="16.2500259659058" stroke="black" stroke-linecap="round" stroke-linejoin="bevel" stroke-width="1"/>
      </g>
      <g id="Graphic_3801">
        <ellipse cx="2476.25" cy="982.085" rx="16.7500267648565" ry="16.2500259659058" fill="#ffbb1a"/>
        <ellipse cx="2476.25" cy="982.085" rx="16.7500267648565" ry="16.2500259659058" stroke="black" stroke-linecap="round" stroke-linejoin="bevel" stroke-width="1"/>
      </g>
      <g id="Graphic_3800">
        <ellipse cx="2707.25" cy="982.085" rx="16.7500267648565" ry="16.2500259659058" fill="#ffbb1a"/>
        <ellipse cx="2707.25" cy="982.085" rx="16.7500267648565" ry="16.2500259659058" stroke="black" stroke-linecap="round" stroke-linejoin="bevel" stroke-width="1"/>
      </g>
      <g id="Graphic_3799">
        <ellipse cx="2745.25" cy="982.085" rx="16.7500267648564" ry="16.2500259659058" fill="#ffbb1a"/>
        <ellipse cx="2745.25" cy="982.085" rx="16.7500267648564" ry="16.2500259659058" stroke="black" stroke-linecap="round" stroke-linejoin="bevel" stroke-width="1"/>
      </g>
      <g id="Graphic_3798">
        <ellipse cx="2783.25" cy="982.085" rx="16.7500267648563" ry="16.2500259659058" fill="#ffe4b0"/>
        <ellipse cx="2783.25" cy="982.085" rx="16.7500267648563" ry="16.2500259659058" stroke="black" stroke-linecap="round" stroke-linejoin="bevel" stroke-width="1"/>
      </g>
      <g id="Graphic_3797">
        <ellipse cx="2821.25" cy="982.085" rx="16.7500267648564" ry="16.2500259659058" fill="#ffe4b0"/>
        <ellipse cx="2821.25" cy="982.085" rx="16.7500267648564" ry="16.2500259659058" stroke="black" stroke-linecap="round" stroke-linejoin="bevel" stroke-width="1"/>
      </g>
      <g id="Graphic_3796">
        <ellipse cx="2859.25" cy="982.085" rx="16.7500267648564" ry="16.2500259659058" fill="#ffe4b0"/>
        <ellipse cx="2859.25" cy="982.085" rx="16.7500267648564" ry="16.2500259659058" stroke="black" stroke-linecap="round" stroke-linejoin="bevel" stroke-width="1"/>
      </g>
      <g id="Graphic_3795">
        <ellipse cx="2897.25" cy="982.085" rx="16.7500267648565" ry="16.2500259659058" fill="#e2e3ff"/>
        <ellipse cx="2897.25" cy="982.085" rx="16.7500267648565" ry="16.2500259659058" stroke="black" stroke-linecap="round" stroke-linejoin="bevel" stroke-width="1"/>
      </g>
      <g id="Graphic_3794">
        <ellipse cx="2935.25" cy="982.085" rx="16.7500267648565" ry="16.2500259659058" fill="#e2e3ff"/>
        <ellipse cx="2935.25" cy="982.085" rx="16.7500267648565" ry="16.2500259659058" stroke="black" stroke-linecap="round" stroke-linejoin="bevel" stroke-width="1"/>
      </g>
      <g id="Graphic_3793">
        <ellipse cx="2973.25" cy="982.085" rx="16.7500267648565" ry="16.2500259659058" fill="#e2e3ff"/>
        <ellipse cx="2973.25" cy="982.085" rx="16.7500267648565" ry="16.2500259659058" stroke="black" stroke-linecap="round" stroke-linejoin="bevel" stroke-width="1"/>
      </g>
      <g id="Graphic_3792">
        <ellipse cx="3011.25" cy="982.085" rx="16.7500267648563" ry="16.2500259659058" fill="#bfbfff"/>
        <ellipse cx="3011.25" cy="982.085" rx="16.7500267648563" ry="16.2500259659058" stroke="black" stroke-linecap="round" stroke-linejoin="bevel" stroke-width="1"/>
      </g>
      <g id="Graphic_3791">
        <ellipse cx="3049.25" cy="982.085" rx="16.7500267648564" ry="16.2500259659058" fill="#bfbfff"/>
        <ellipse cx="3049.25" cy="982.085" rx="16.7500267648564" ry="16.2500259659058" stroke="black" stroke-linecap="round" stroke-linejoin="bevel" stroke-width="1"/>
      </g>
      <g id="Graphic_3790">
        <ellipse cx="3087.25" cy="982.085" rx="16.7500267648565" ry="16.2500259659058" fill="#bfbfff"/>
        <ellipse cx="3087.25" cy="982.085" rx="16.7500267648565" ry="16.2500259659058" stroke="black" stroke-linecap="round" stroke-linejoin="bevel" stroke-width="1"/>
      </g>
      <g id="Graphic_3789">
        <ellipse cx="3125.25" cy="982.085" rx="16.7500267648564" ry="16.2500259659058" fill="#bfbfff"/>
        <ellipse cx="3125.25" cy="982.085" rx="16.7500267648564" ry="16.2500259659058" stroke="black" stroke-linecap="round" stroke-linejoin="bevel" stroke-width="1"/>
      </g>
      <g id="Graphic_3788">
        <ellipse cx="3163.25" cy="982.085" rx="16.7500267648565" ry="16.2500259659058" fill="#bfbfff"/>
        <ellipse cx="3163.25" cy="982.085" rx="16.7500267648565" ry="16.2500259659058" stroke="black" stroke-linecap="round" stroke-linejoin="bevel" stroke-width="1"/>
      </g>
      <g id="Graphic_3787">
        <ellipse cx="2553.25" cy="1019.4537" rx="16.7500267648564" ry="16.2500259659059" fill="#ffbb1a"/>
        <ellipse cx="2553.25" cy="1019.4537" rx="16.7500267648564" ry="16.2500259659059" stroke="black" stroke-linecap="round" stroke-linejoin="bevel" stroke-width="1"/>
      </g>
      <g id="Graphic_3786">
        <ellipse cx="2668.75" cy="1019.4537" rx="16.7500267648564" ry="16.2500259659059" fill="#ffbb1a"/>
        <ellipse cx="2668.75" cy="1019.4537" rx="16.7500267648564" ry="16.2500259659059" stroke="black" stroke-linecap="round" stroke-linejoin="bevel" stroke-width="1"/>
      </g>
      <g id="Graphic_3785">
        <ellipse cx="2514.75" cy="1019.4537" rx="16.7500267648565" ry="16.2500259659059" fill="#ffbb1a"/>
        <ellipse cx="2514.75" cy="1019.4537" rx="16.7500267648565" ry="16.2500259659059" stroke="black" stroke-linecap="round" stroke-linejoin="bevel" stroke-width="1"/>
      </g>
      <g id="Graphic_3784">
        <ellipse cx="2591.75" cy="1019.4537" rx="16.7500267648565" ry="16.2500259659059" fill="#ffbb1a"/>
        <ellipse cx="2591.75" cy="1019.4537" rx="16.7500267648565" ry="16.2500259659059" stroke="black" stroke-linecap="round" stroke-linejoin="bevel" stroke-width="1"/>
      </g>
      <g id="Graphic_3783">
        <ellipse cx="2437.75" cy="1019.4537" rx="16.7500267648563" ry="16.2500259659059" fill="#ffbb1a"/>
        <ellipse cx="2437.75" cy="1019.4537" rx="16.7500267648563" ry="16.2500259659059" stroke="black" stroke-linecap="round" stroke-linejoin="bevel" stroke-width="1"/>
      </g>
      <g id="Graphic_3782">
        <ellipse cx="2630.25" cy="1019.4537" rx="16.7500267648563" ry="16.2500259659059" fill="#ffbb1a"/>
        <ellipse cx="2630.25" cy="1019.4537" rx="16.7500267648563" ry="16.2500259659059" stroke="black" stroke-linecap="round" stroke-linejoin="bevel" stroke-width="1"/>
      </g>
      <g id="Graphic_3781">
        <ellipse cx="2476.25" cy="1019.4537" rx="16.7500267648565" ry="16.2500259659059" fill="#ffbb1a"/>
        <ellipse cx="2476.25" cy="1019.4537" rx="16.7500267648565" ry="16.2500259659059" stroke="black" stroke-linecap="round" stroke-linejoin="bevel" stroke-width="1"/>
      </g>
      <g id="Graphic_3780">
        <ellipse cx="2707.25" cy="1019.4537" rx="16.7500267648565" ry="16.2500259659059" fill="#ffbb1a"/>
        <ellipse cx="2707.25" cy="1019.4537" rx="16.7500267648565" ry="16.2500259659059" stroke="black" stroke-linecap="round" stroke-linejoin="bevel" stroke-width="1"/>
      </g>
      <g id="Graphic_3779">
        <ellipse cx="2745.25" cy="1019.4537" rx="16.7500267648564" ry="16.2500259659059" fill="#ffbb1a"/>
        <ellipse cx="2745.25" cy="1019.4537" rx="16.7500267648564" ry="16.2500259659059" stroke="black" stroke-linecap="round" stroke-linejoin="bevel" stroke-width="1"/>
      </g>
      <g id="Graphic_3778">
        <ellipse cx="2783.25" cy="1019.4537" rx="16.7500267648563" ry="16.2500259659059" fill="#ffe4b0"/>
        <ellipse cx="2783.25" cy="1019.4537" rx="16.7500267648563" ry="16.2500259659059" stroke="black" stroke-linecap="round" stroke-linejoin="bevel" stroke-width="1"/>
      </g>
      <g id="Graphic_3777">
        <ellipse cx="2821.25" cy="1019.4537" rx="16.7500267648564" ry="16.2500259659059" fill="#ffe4b0"/>
        <ellipse cx="2821.25" cy="1019.4537" rx="16.7500267648564" ry="16.2500259659059" stroke="black" stroke-linecap="round" stroke-linejoin="bevel" stroke-width="1"/>
      </g>
      <g id="Graphic_3776">
        <ellipse cx="2859.25" cy="1019.4537" rx="16.7500267648564" ry="16.2500259659059" fill="#ffe4b0"/>
        <ellipse cx="2859.25" cy="1019.4537" rx="16.7500267648564" ry="16.2500259659059" stroke="black" stroke-linecap="round" stroke-linejoin="bevel" stroke-width="1"/>
      </g>
      <g id="Graphic_3775">
        <ellipse cx="2897.25" cy="1019.4537" rx="16.7500267648565" ry="16.2500259659059" fill="#e2e3ff"/>
        <ellipse cx="2897.25" cy="1019.4537" rx="16.7500267648565" ry="16.2500259659059" stroke="black" stroke-linecap="round" stroke-linejoin="bevel" stroke-width="1"/>
      </g>
      <g id="Graphic_3774">
        <ellipse cx="2935.25" cy="1019.4537" rx="16.7500267648565" ry="16.2500259659059" fill="#e2e3ff"/>
        <ellipse cx="2935.25" cy="1019.4537" rx="16.7500267648565" ry="16.2500259659059" stroke="black" stroke-linecap="round" stroke-linejoin="bevel" stroke-width="1"/>
      </g>
      <g id="Graphic_3773">
        <ellipse cx="2973.25" cy="1019.4537" rx="16.7500267648565" ry="16.2500259659059" fill="#e2e3ff"/>
        <ellipse cx="2973.25" cy="1019.4537" rx="16.7500267648565" ry="16.2500259659059" stroke="black" stroke-linecap="round" stroke-linejoin="bevel" stroke-width="1"/>
      </g>
      <g id="Graphic_3772">
        <ellipse cx="3011.25" cy="1019.4537" rx="16.7500267648563" ry="16.2500259659059" fill="#bfbfff"/>
        <ellipse cx="3011.25" cy="1019.4537" rx="16.7500267648563" ry="16.2500259659059" stroke="black" stroke-linecap="round" stroke-linejoin="bevel" stroke-width="1"/>
      </g>
      <g id="Graphic_3771">
        <ellipse cx="3049.25" cy="1019.4537" rx="16.7500267648564" ry="16.2500259659059" fill="#bfbfff"/>
        <ellipse cx="3049.25" cy="1019.4537" rx="16.7500267648564" ry="16.2500259659059" stroke="black" stroke-linecap="round" stroke-linejoin="bevel" stroke-width="1"/>
      </g>
      <g id="Graphic_3770">
        <ellipse cx="3087.25" cy="1019.4537" rx="16.7500267648565" ry="16.2500259659059" fill="#bfbfff"/>
        <ellipse cx="3087.25" cy="1019.4537" rx="16.7500267648565" ry="16.2500259659059" stroke="black" stroke-linecap="round" stroke-linejoin="bevel" stroke-width="1"/>
      </g>
      <g id="Graphic_3769">
        <ellipse cx="3125.25" cy="1019.4537" rx="16.7500267648564" ry="16.2500259659059" fill="#bfbfff"/>
        <ellipse cx="3125.25" cy="1019.4537" rx="16.7500267648564" ry="16.2500259659059" stroke="black" stroke-linecap="round" stroke-linejoin="bevel" stroke-width="1"/>
      </g>
      <g id="Graphic_3768">
        <ellipse cx="3163.25" cy="1019.4537" rx="16.7500267648565" ry="16.2500259659059" fill="#bfbfff"/>
        <ellipse cx="3163.25" cy="1019.4537" rx="16.7500267648565" ry="16.2500259659059" stroke="black" stroke-linecap="round" stroke-linejoin="bevel" stroke-width="1"/>
      </g>
      <g id="Graphic_3767">
        <ellipse cx="2553.25" cy="1056.7959" rx="16.7500267648564" ry="16.250025965906" fill="#ffbb1a"/>
        <ellipse cx="2553.25" cy="1056.7959" rx="16.7500267648564" ry="16.250025965906" stroke="black" stroke-linecap="round" stroke-linejoin="bevel" stroke-width="1"/>
      </g>
      <g id="Graphic_3766">
        <ellipse cx="2668.75" cy="1056.7959" rx="16.7500267648564" ry="16.250025965906" fill="#ffbb1a"/>
        <ellipse cx="2668.75" cy="1056.7959" rx="16.7500267648564" ry="16.250025965906" stroke="black" stroke-linecap="round" stroke-linejoin="bevel" stroke-width="1"/>
      </g>
      <g id="Graphic_3765">
        <ellipse cx="2514.75" cy="1056.7959" rx="16.7500267648565" ry="16.250025965906" fill="#ffbb1a"/>
        <ellipse cx="2514.75" cy="1056.7959" rx="16.7500267648565" ry="16.250025965906" stroke="black" stroke-linecap="round" stroke-linejoin="bevel" stroke-width="1"/>
      </g>
      <g id="Graphic_3764">
        <ellipse cx="2591.75" cy="1056.7959" rx="16.7500267648565" ry="16.250025965906" fill="#ffbb1a"/>
        <ellipse cx="2591.75" cy="1056.7959" rx="16.7500267648565" ry="16.250025965906" stroke="black" stroke-linecap="round" stroke-linejoin="bevel" stroke-width="1"/>
      </g>
      <g id="Graphic_3763">
        <ellipse cx="2437.75" cy="1056.7959" rx="16.7500267648563" ry="16.250025965906" fill="#ffbb1a"/>
        <ellipse cx="2437.75" cy="1056.7959" rx="16.7500267648563" ry="16.250025965906" stroke="black" stroke-linecap="round" stroke-linejoin="bevel" stroke-width="1"/>
      </g>
      <g id="Graphic_3762">
        <ellipse cx="2630.25" cy="1056.7959" rx="16.7500267648563" ry="16.250025965906" fill="#ffbb1a"/>
        <ellipse cx="2630.25" cy="1056.7959" rx="16.7500267648563" ry="16.250025965906" stroke="black" stroke-linecap="round" stroke-linejoin="bevel" stroke-width="1"/>
      </g>
      <g id="Graphic_3761">
        <ellipse cx="2476.25" cy="1056.7959" rx="16.7500267648565" ry="16.250025965906" fill="#ffbb1a"/>
        <ellipse cx="2476.25" cy="1056.7959" rx="16.7500267648565" ry="16.250025965906" stroke="black" stroke-linecap="round" stroke-linejoin="bevel" stroke-width="1"/>
      </g>
      <g id="Graphic_3760">
        <ellipse cx="2707.25" cy="1056.7959" rx="16.7500267648565" ry="16.250025965906" fill="#ffbb1a"/>
        <ellipse cx="2707.25" cy="1056.7959" rx="16.7500267648565" ry="16.250025965906" stroke="black" stroke-linecap="round" stroke-linejoin="bevel" stroke-width="1"/>
      </g>
      <g id="Graphic_3759">
        <ellipse cx="2745.25" cy="1056.7959" rx="16.7500267648564" ry="16.250025965906" fill="#ffbb1a"/>
        <ellipse cx="2745.25" cy="1056.7959" rx="16.7500267648564" ry="16.250025965906" stroke="black" stroke-linecap="round" stroke-linejoin="bevel" stroke-width="1"/>
      </g>
      <g id="Graphic_3758">
        <ellipse cx="2783.25" cy="1056.7959" rx="16.7500267648563" ry="16.250025965906" fill="#ffe4b0"/>
        <ellipse cx="2783.25" cy="1056.7959" rx="16.7500267648563" ry="16.250025965906" stroke="black" stroke-linecap="round" stroke-linejoin="bevel" stroke-width="1"/>
      </g>
      <g id="Graphic_3757">
        <ellipse cx="2821.25" cy="1056.7959" rx="16.7500267648564" ry="16.250025965906" fill="#ffe4b0"/>
        <ellipse cx="2821.25" cy="1056.7959" rx="16.7500267648564" ry="16.250025965906" stroke="black" stroke-linecap="round" stroke-linejoin="bevel" stroke-width="1"/>
      </g>
      <g id="Graphic_3756">
        <ellipse cx="2859.25" cy="1056.7959" rx="16.7500267648564" ry="16.250025965906" fill="#ffe4b0"/>
        <ellipse cx="2859.25" cy="1056.7959" rx="16.7500267648564" ry="16.250025965906" stroke="black" stroke-linecap="round" stroke-linejoin="bevel" stroke-width="1"/>
      </g>
      <g id="Graphic_3755">
        <ellipse cx="2897.25" cy="1056.7959" rx="16.7500267648565" ry="16.250025965906" fill="#e2e3ff"/>
        <ellipse cx="2897.25" cy="1056.7959" rx="16.7500267648565" ry="16.250025965906" stroke="black" stroke-linecap="round" stroke-linejoin="bevel" stroke-width="1"/>
      </g>
      <g id="Graphic_3754">
        <ellipse cx="2935.25" cy="1056.7959" rx="16.7500267648565" ry="16.250025965906" fill="#e2e3ff"/>
        <ellipse cx="2935.25" cy="1056.7959" rx="16.7500267648565" ry="16.250025965906" stroke="black" stroke-linecap="round" stroke-linejoin="bevel" stroke-width="1"/>
      </g>
      <g id="Graphic_3753">
        <ellipse cx="2973.25" cy="1056.7959" rx="16.7500267648565" ry="16.250025965906" fill="#e2e3ff"/>
        <ellipse cx="2973.25" cy="1056.7959" rx="16.7500267648565" ry="16.250025965906" stroke="black" stroke-linecap="round" stroke-linejoin="bevel" stroke-width="1"/>
      </g>
      <g id="Graphic_3752">
        <ellipse cx="3011.25" cy="1056.7959" rx="16.7500267648563" ry="16.250025965906" fill="#bfbfff"/>
        <ellipse cx="3011.25" cy="1056.7959" rx="16.7500267648563" ry="16.250025965906" stroke="black" stroke-linecap="round" stroke-linejoin="bevel" stroke-width="1"/>
      </g>
      <g id="Graphic_3751">
        <ellipse cx="3049.25" cy="1056.7959" rx="16.7500267648564" ry="16.250025965906" fill="#bfbfff"/>
        <ellipse cx="3049.25" cy="1056.7959" rx="16.7500267648564" ry="16.250025965906" stroke="black" stroke-linecap="round" stroke-linejoin="bevel" stroke-width="1"/>
      </g>
      <g id="Graphic_3750">
        <ellipse cx="3087.25" cy="1056.7959" rx="16.7500267648565" ry="16.250025965906" fill="#bfbfff"/>
        <ellipse cx="3087.25" cy="1056.7959" rx="16.7500267648565" ry="16.250025965906" stroke="black" stroke-linecap="round" stroke-linejoin="bevel" stroke-width="1"/>
      </g>
      <g id="Graphic_3749">
        <ellipse cx="3125.25" cy="1056.7959" rx="16.7500267648564" ry="16.250025965906" fill="#bfbfff"/>
        <ellipse cx="3125.25" cy="1056.7959" rx="16.7500267648564" ry="16.250025965906" stroke="black" stroke-linecap="round" stroke-linejoin="bevel" stroke-width="1"/>
      </g>
      <g id="Graphic_3748">
        <ellipse cx="3163.25" cy="1056.7959" rx="16.7500267648565" ry="16.250025965906" fill="#bfbfff"/>
        <ellipse cx="3163.25" cy="1056.7959" rx="16.7500267648565" ry="16.250025965906" stroke="black" stroke-linecap="round" stroke-linejoin="bevel" stroke-width="1"/>
      </g>
    </g>
  </g>
</svg>
